<svg width="100" height="100" viewBox="0 0 100 100" fill="none" xmlns="http://www.w3.org/2000/svg">
<circle cx="50" cy="50" r="50" fill="url(#paint0_linear_768_1316)" fill-opacity="0.12"/>
<path d="M50 31.6667C45.1967 31.6667 41.2917 35.5717 41.2917 40.3751C41.2917 45.0867 44.9767 48.9001 49.78 49.0651C49.9267 49.0467 50.0733 49.0467 50.1833 49.0651C50.22 49.0651 50.2383 49.0651 50.275 49.0651C50.2933 49.0651 50.2933 49.0651 50.3117 49.0651C55.005 48.9001 58.69 45.0867 58.7083 40.3751C58.7083 35.5717 54.8033 31.6667 50 31.6667Z" fill="url(#paint1_linear_768_1316)" fill-opacity="0.4"/>
<path d="M59.3133 53.9418C54.1983 50.5318 45.8567 50.5318 40.705 53.9418C38.3767 55.5001 37.0933 57.6084 37.0933 59.8634C37.0933 62.1184 38.3767 64.2084 40.6867 65.7484C43.2533 67.4718 46.6267 68.3334 50 68.3334C53.3733 68.3334 56.7467 67.4718 59.3133 65.7484C61.6233 64.1901 62.9067 62.1001 62.9067 59.8268C62.8883 57.5718 61.6233 55.4818 59.3133 53.9418Z" fill="url(#paint2_linear_768_1316)" fill-opacity="0.4"/>
<defs>
<linearGradient id="paint0_linear_768_1316" x1="2.22709" y1="-2.13092e-06" x2="63.4623" y2="-18.1619" gradientUnits="userSpaceOnUse">
<stop stop-color="#EBAB42"/>
<stop offset="1" stop-color="#B2811A"/>
</linearGradient>
<linearGradient id="paint1_linear_768_1316" x1="41.6795" y1="31.6667" x2="52.3429" y2="28.5008" gradientUnits="userSpaceOnUse">
<stop stop-color="#EBAB42"/>
<stop offset="1" stop-color="#B2811A"/>
</linearGradient>
<linearGradient id="paint2_linear_768_1316" x1="37.6682" y1="51.3843" x2="51.9513" y2="44.9325" gradientUnits="userSpaceOnUse">
<stop stop-color="#EBAB42"/>
<stop offset="1" stop-color="#B2811A"/>
</linearGradient>
</defs>
</svg>
